<?xml version="1.0" encoding="UTF-8"?>
<svg version="1.1" xmlns="http://www.w3.org/2000/svg" width="128" height="128">
<path d="M0 0 C0.89396484 -0.02449219 1.78792969 -0.04898437 2.70898438 -0.07421875 C7.00561015 -0.09335739 9.41366943 -0.02169008 13.1484375 2.26171875 C15.11344634 4.43124892 15.57737447 5.56127195 16.0625 8.375 C16.7225 8.705 17.3825 9.035 18.0625 9.375 C19.82267118 12.89534236 19.29104029 16.49348745 18.32421875 20.22265625 C17.97691636 24.40583575 19.20846678 25.79090338 21.75 29.0625 C22.45511719 29.99449219 23.16023438 30.92648438 23.88671875 31.88671875 C25.82498809 34.10337507 27.72440542 35.6280264 30.0625 37.375 C30.0625 38.035 30.0625 38.695 30.0625 39.375 C30.7225 39.375 31.3825 39.375 32.0625 39.375 C32.0625 40.035 32.0625 40.695 32.0625 41.375 C32.619375 41.560625 33.17625 41.74625 33.75 41.9375 C38.38151178 44.81654786 41.61225825 50.17830041 43.0625 55.375 C44.35048516 62.04288778 44.20821336 66.19592018 41.0625 72.375 C40.64955104 73.68221591 40.25522156 74.99539262 39.875 76.3125 C34.72577119 91.97362598 25.38952631 109.84017713 10.8125 118.25 C2.42463894 120.76635832 -5.93483506 119.82021508 -13.9375 116.375 C-16.56363242 114.8783869 -18.61231346 113.34635381 -20.9375 111.375 C-20.9375 110.715 -20.9375 110.055 -20.9375 109.375 C-21.5975 109.375 -22.2575 109.375 -22.9375 109.375 C-24.416408 107.38369026 -25.75031554 105.41105171 -27.0625 103.3125 C-27.45703369 102.68706299 -27.85156738 102.06162598 -28.25805664 101.41723633 C-40.27084159 82.11568751 -40.27084159 82.11568751 -41.9375 71.375 C-42.2675 71.045 -42.5975 70.715 -42.9375 70.375 C-43.14816368 68.08695833 -43.30614841 65.79396178 -43.4375 63.5 C-43.71582315 58.34768808 -43.71582315 58.34768808 -44.9375 53.375 C-43.9475 52.88 -43.9475 52.88 -42.9375 52.375 C-42.51210938 51.47007813 -42.08671875 50.56515625 -41.6484375 49.6328125 C-39.73176448 45.98325702 -37.65536374 43.95307817 -34.5625 41.25 C-33.62664063 40.42242187 -32.69078125 39.59484375 -31.7265625 38.7421875 C-29.96532915 37.24735919 -28.16130782 35.8003414 -26.3046875 34.42578125 C-21.98151246 30.68045634 -19.60237805 25.79600536 -17.9375 20.375 C-18.28972755 16.98123995 -19.27529094 14.34002157 -20.9375 11.375 C-18.9375 9.375 -18.9375 9.375 -16.875 8 C-14.76578808 6.55729654 -14.76578808 6.55729654 -14.4375 4.3125 C-13.9375 2.375 -13.9375 2.375 -12.19311523 1.27490234 C-8.23942542 -0.30246541 -4.20734251 0.00604069 0 0 Z " fill="#B1B281" transform="translate(63.9375,3.625)"/>
<path d="M0 0 C0.33 0 0.66 0 1 0 C1.144375 1.051875 1.28875 2.10375 1.4375 3.1875 C1.92163439 6.82934366 1.92163439 6.82934366 2.625 9.6875 C3.02258587 12.13927953 2.7786753 13.6639741 2 16 C2.66 15.67 3.32 15.34 4 15 C4.65213292 12.97536745 4.65213292 12.97536745 5 11 C5.8353125 11.433125 5.8353125 11.433125 6.6875 11.875 C9.08494645 13.0413253 11.51596939 14.0339881 14 15 C14 15.66 14 16.32 14 17 C16.99543626 17.69893513 19.99114354 18.36293168 23 19 C24.30517578 19.28617188 24.30517578 19.28617188 25.63671875 19.578125 C37.73744561 21.94088896 51.0513668 22.36242944 63 19 C62.67 17.35 62.34 15.7 62 14 C66.455 13.505 66.455 13.505 71 13 C71.33 12.01 71.66 11.02 72 10 C72.66 10 73.32 10 74 10 C74.99 10.99 74.99 10.99 76 12 C78.12038635 9.38485683 80.13091744 6.80362384 82 4 C82.66 4 83.32 4 84 4 C85.54736486 9.63956945 86.39717767 14.17842636 85 20 C84.01 21.485 84.01 21.485 83 23 C82.443125 24.8253125 82.443125 24.8253125 81.875 26.6875 C76.75331137 42.43669252 67.40120963 60.42237906 52.75 68.875 C44.36213894 71.39135832 36.00266494 70.44521508 28 67 C25.37386758 65.5033869 23.32518654 63.97135381 21 62 C21 61.34 21 60.68 21 60 C20.34 60 19.68 60 19 60 C17.521092 58.00869026 16.18718446 56.03605171 14.875 53.9375 C14.48046631 53.31206299 14.08593262 52.68662598 13.67944336 52.04223633 C1.66665841 32.74068751 1.66665841 32.74068751 0 22 C-0.33 21.67 -0.66 21.34 -1 21 C-1.21066368 18.71195833 -1.36864841 16.41896178 -1.5 14.125 C-1.77832315 8.97268808 -1.77832315 8.97268808 -3 4 C-2.34 3.67 -1.68 3.34 -1 3 C-0.67 2.01 -0.34 1.02 0 0 Z " fill="#72795A" transform="translate(22,53)"/>
<path d="M0 0 C0.89396484 -0.02449219 1.78792969 -0.04898437 2.70898438 -0.07421875 C7.00561015 -0.09335739 9.41366943 -0.02169008 13.1484375 2.26171875 C15.11344634 4.43124892 15.57737447 5.56127195 16.0625 8.375 C16.7225 8.705 17.3825 9.035 18.0625 9.375 C19.82267118 12.89534236 19.29104029 16.49348745 18.32421875 20.22265625 C17.97691636 24.40583575 19.20846678 25.79090338 21.75 29.0625 C22.45511719 29.99449219 23.16023438 30.92648438 23.88671875 31.88671875 C25.82498809 34.10337507 27.72440542 35.6280264 30.0625 37.375 C30.0625 38.035 30.0625 38.695 30.0625 39.375 C30.7225 39.375 31.3825 39.375 32.0625 39.375 C32.0625 40.035 32.0625 40.695 32.0625 41.375 C32.660625 41.6225 33.25875 41.87 33.875 42.125 C36.37876919 43.55572525 37.54322388 44.9441582 39.0625 47.375 C39.0625 48.035 39.0625 48.695 39.0625 49.375 C36.0625 49.375 36.0625 49.375 34.5625 47.87890625 C34.0675 47.23824219 33.5725 46.59757812 33.0625 45.9375 C30.68550315 42.87068071 30.68550315 42.87068071 27.0625 41.375 C25.72916667 40.04166667 24.39583333 38.70833333 23.0625 37.375 C22.0725 37.045 21.0825 36.715 20.0625 36.375 C19.4025 37.035 18.7425 37.695 18.0625 38.375 C17.0725 38.045 16.0825 37.715 15.0625 37.375 C13.16779184 37.3064505 11.2708166 37.29019628 9.375 37.3125 C8.38113281 37.32152344 7.38726562 37.33054688 6.36328125 37.33984375 C5.22439453 37.35724609 5.22439453 37.35724609 4.0625 37.375 C4.0625 36.715 4.0625 36.055 4.0625 35.375 C1.41659986 35.34815321 -1.22903096 35.32823643 -3.875 35.3125 C-5.00711914 35.29993164 -5.00711914 35.29993164 -6.16210938 35.28710938 C-8.08744313 35.27847559 -10.01285581 35.32275667 -11.9375 35.375 C-12.4325 35.87 -12.4325 35.87 -12.9375 36.375 C-19.46292373 36.61228814 -19.46292373 36.61228814 -21.9375 35.375 C-21.7725 34.611875 -21.6075 33.84875 -21.4375 33.0625 C-20.84604604 30.33903764 -20.84604604 30.33903764 -20.9375 27.375 C-20.380625 26.34375 -19.82375 25.3125 -19.25 24.25 C-17.68312338 20.86235471 -18.05944023 18.93752525 -19.25 15.4375 C-19.78948175 14.07399971 -20.34450055 12.71609107 -20.9375 11.375 C-18.9375 9.375 -18.9375 9.375 -16.875 8 C-14.76578808 6.55729654 -14.76578808 6.55729654 -14.4375 4.3125 C-13.9375 2.375 -13.9375 2.375 -12.19311523 1.27490234 C-8.23942542 -0.30246541 -4.20734251 0.00604069 0 0 Z " fill="#8E8E53" transform="translate(63.9375,3.625)"/>
<path d="M0 0 C0.33 0 0.66 0 1 0 C1.144375 1.051875 1.28875 2.10375 1.4375 3.1875 C1.92163439 6.82934366 1.92163439 6.82934366 2.625 9.6875 C3.02258587 12.13927953 2.7786753 13.6639741 2 16 C2.66 15.67 3.32 15.34 4 15 C4.65213292 12.97536745 4.65213292 12.97536745 5 11 C5.8353125 11.433125 5.8353125 11.433125 6.6875 11.875 C9.08494645 13.0413253 11.51596939 14.0339881 14 15 C14 15.66 14 16.32 14 17 C16.99543626 17.69893513 19.99114354 18.36293168 23 19 C24.30517578 19.28617188 24.30517578 19.28617188 25.63671875 19.578125 C37.73744561 21.94088896 51.0513668 22.36242944 63 19 C62.67 17.35 62.34 15.7 62 14 C66.455 13.505 66.455 13.505 71 13 C71.33 12.01 71.66 11.02 72 10 C72.66 10 73.32 10 74 10 C74.99 10.99 74.99 10.99 76 12 C78.12038635 9.38485683 80.13091744 6.80362384 82 4 C82.66 4 83.32 4 84 4 C84.36402369 5.43503555 84.71586591 6.87316506 85.0625 8.3125 C85.25972656 9.11300781 85.45695312 9.91351563 85.66015625 10.73828125 C86 13 86 13 85 16 C84.01 15.67 83.02 15.34 82 15 C81.195625 15.886875 80.39125 16.77375 79.5625 17.6875 C67.66380647 29.44751412 50.71997323 29.67964652 35 31 C35 30.34 35 29.68 35 29 C34.41992188 28.95101562 33.83984375 28.90203125 33.2421875 28.8515625 C27.19712888 28.27299253 22.14811243 27.43207495 17 24 C15.34450469 23.61500109 13.6777567 23.27206865 12 23 C12 23.99 12 24.98 12 26 C12.92232422 26.29003906 12.92232422 26.29003906 13.86328125 26.5859375 C14.67152344 26.84632812 15.47976562 27.10671875 16.3125 27.375 C17.11300781 27.63023438 17.91351563 27.88546875 18.73828125 28.1484375 C21 29 21 29 24 31 C24 31.66 24 32.32 24 33 C20.33827525 32.37321829 17.1181005 31.35548154 13.6875 29.9375 C12.80449219 29.57527344 11.92148437 29.21304688 11.01171875 28.83984375 C10.01591797 28.42412109 10.01591797 28.42412109 9 28 C8.67 29.98 8.34 31.96 8 34 C8.66 34.33 9.32 34.66 10 35 C9.34 35 8.68 35 8 35 C10.27415287 38.37088267 10.27415287 38.37088267 14 40 C14 40.99 14 41.98 14 43 C15.2065625 43.185625 15.2065625 43.185625 16.4375 43.375 C17.283125 43.58125 18.12875 43.7875 19 44 C19.33 44.66 19.66 45.32 20 46 C18.02 45.67 16.04 45.34 14 45 C15.54872019 47.61327737 17.11286126 50.21490446 18.6875 52.8125 C19.12255859 53.55048828 19.55761719 54.28847656 20.00585938 55.04882812 C22.57165184 59.24912542 24.51646735 61.69764539 29 64 C29 64.66 29 65.32 29 66 C25.65750371 65.40312566 23.53563658 64.26396123 21 62 C21 61.34 21 60.68 21 60 C20.34 60 19.68 60 19 60 C17.521092 58.00869026 16.18718446 56.03605171 14.875 53.9375 C14.48046631 53.31206299 14.08593262 52.68662598 13.67944336 52.04223633 C1.66665841 32.74068751 1.66665841 32.74068751 0 22 C-0.33 21.67 -0.66 21.34 -1 21 C-1.21066368 18.71195833 -1.36864841 16.41896178 -1.5 14.125 C-1.77832315 8.97268808 -1.77832315 8.97268808 -3 4 C-2.34 3.67 -1.68 3.34 -1 3 C-0.67 2.01 -0.34 1.02 0 0 Z " fill="#959969" transform="translate(22,53)"/>
<path d="M0 0 C0 3 0 3 -1 6 C1.97 6.33 4.94 6.66 8 7 C7.319375 8.051875 6.63875 9.10375 5.9375 10.1875 C4.3643405 12.90327009 3.97487487 13.70477974 4.25 16.9375 C4.4975 17.618125 4.745 18.29875 5 19 C7.31 19.33 9.62 19.66 12 20 C11.60265845 21.94155532 11.18136959 23.87822038 10.75 25.8125 C10.51796875 26.89144531 10.2859375 27.97039063 10.046875 29.08203125 C8.85928384 32.39222006 7.75943866 33.01023948 5 35 C5 36.32 5 37.64 5 39 C3.56208484 38.85831863 2.1246763 38.71148957 0.6875 38.5625 C-0.11300781 38.48128906 -0.91351563 38.40007812 -1.73828125 38.31640625 C-4 38 -4 38 -7 37 C-7 36.34 -7 35.68 -7 35 C-7.928125 34.71125 -8.85625 34.4225 -9.8125 34.125 C-13 33 -13 33 -16 31 C-16 32.65 -16 34.3 -16 36 C-16.99 36 -17.98 36 -19 36 C-18.96744792 33.94921875 -18.93489583 31.8984375 -18.90234375 29.84765625 C-18.79438816 27.98267859 -18.79438816 27.98267859 -20 27 C-20.78887645 23.23766618 -21.08923171 21.59760665 -20 18 C-15.62757255 12.923885 -10.44792721 8.94940271 -5.21875 4.78515625 C-3.34449775 3.27717512 -1.65445886 1.74153564 0 0 Z M2 15 C1.67 15.66 1.34 16.32 1 17 C1.66 17 2.32 17 3 17 C2.67 16.34 2.34 15.68 2 15 Z " fill="#B2B389" transform="translate(43,33)"/>
<path d="M0 0 C0.89396484 -0.02449219 1.78792969 -0.04898437 2.70898438 -0.07421875 C7.00561015 -0.09335739 9.41366943 -0.02169008 13.1484375 2.26171875 C15.11344634 4.43124892 15.57737447 5.56127195 16.0625 8.375 C16.7225 8.705 17.3825 9.035 18.0625 9.375 C15.8328874 13.95809258 13.78478359 15.52249419 9.0625 17.375 C6.04998166 17.76527575 3.09583127 17.75006871 0.0625 17.6875 C-0.71867187 17.69072266 -1.49984375 17.69394531 -2.3046875 17.69726562 C-12.71159463 17.60090537 -12.71159463 17.60090537 -15.9375 14.375 C-15.97813832 12.70882885 -15.980221 11.04111905 -15.9375 9.375 C-16.9275 9.045 -17.9175 8.715 -18.9375 8.375 C-18.298125 8.1275 -17.65875 7.88 -17 7.625 C-14.74114886 6.58686805 -14.74114886 6.58686805 -14.4375 4.375 C-13.9375 2.375 -13.9375 2.375 -12.19311523 1.27099609 C-8.23799122 -0.30009441 -4.20672023 0.0060398 0 0 Z " fill="#B39045" transform="translate(63.9375,3.625)"/>
<path d="M0 0 C2.87921332 0.47418324 5.74568229 0.98322428 8.609375 1.54296875 C11.03794643 7.82868304 11.03794643 7.82868304 9.609375 11.54296875 C11.919375 11.54296875 14.229375 11.54296875 16.609375 11.54296875 C16.609375 11.87296875 16.609375 12.20296875 16.609375 12.54296875 C13.639375 12.54296875 10.669375 12.54296875 7.609375 12.54296875 C7.609375 11.88296875 7.609375 11.22296875 7.609375 10.54296875 C4.96347486 10.51612196 2.31784404 10.49620518 -0.328125 10.48046875 C-1.08287109 10.47208984 -1.83761719 10.46371094 -2.61523438 10.45507812 C-4.54056813 10.44644434 -6.46598081 10.49072542 -8.390625 10.54296875 C-8.720625 10.87296875 -9.050625 11.20296875 -9.390625 11.54296875 C-15.91604873 11.78025689 -15.91604873 11.78025689 -18.390625 10.54296875 C-18.225625 9.77984375 -18.060625 9.01671875 -17.890625 8.23046875 C-17.29917104 5.50700639 -17.29917104 5.50700639 -17.390625 2.54296875 C-13.55138683 -2.83196469 -5.75608322 -0.77587758 0 0 Z " fill="#A5A569" transform="translate(60.390625,28.45703125)"/>
<path d="M0 0 C2.4375 0.6875 2.4375 0.6875 5 2 C5.8125 4.625 5.8125 4.625 6 7 C6.61488281 7.19335938 7.22976562 7.38671875 7.86328125 7.5859375 C8.67152344 7.84632812 9.47976562 8.10671875 10.3125 8.375 C11.11300781 8.63023438 11.91351563 8.88546875 12.73828125 9.1484375 C15 10 15 10 18 12 C18 12.66 18 13.32 18 14 C14.33827525 13.37321829 11.1181005 12.35548154 7.6875 10.9375 C6.80449219 10.57527344 5.92148437 10.21304688 5.01171875 9.83984375 C4.34785156 9.56269531 3.68398438 9.28554687 3 9 C2.67 10.98 2.34 12.96 2 15 C2.66 15.33 3.32 15.66 4 16 C3.34 16 2.68 16 2 16 C4.27415287 19.37088267 4.27415287 19.37088267 8 21 C8 21.99 8 22.98 8 24 C8.804375 24.12375 9.60875 24.2475 10.4375 24.375 C11.7059375 24.684375 11.7059375 24.684375 13 25 C13.33 25.66 13.66 26.32 14 27 C12.02 26.67 10.04 26.34 8 26 C9.54872019 28.61327737 11.11286126 31.21490446 12.6875 33.8125 C13.12255859 34.55048828 13.55761719 35.28847656 14.00585938 36.04882812 C16.57165184 40.24912542 18.51646735 42.69764539 23 45 C23 45.66 23 46.32 23 47 C19.65750371 46.40312566 17.53563658 45.26396123 15 43 C15 42.34 15 41.68 15 41 C14.34 41 13.68 41 13 41 C11.52107948 39.00867341 10.18699745 37.03619643 8.875 34.9375 C8.48119141 34.31206299 8.08738281 33.68662598 7.68164062 33.04223633 C-5 12.63747656 -5 12.63747656 -5 3 C-2.525 3.495 -2.525 3.495 0 4 C0 2.68 0 1.36 0 0 Z " fill="#979C72" transform="translate(28,72)"/>
<path d="M0 0 C0.89396484 -0.02449219 1.78792969 -0.04898437 2.70898438 -0.07421875 C7.00561015 -0.09335739 9.41366943 -0.02169008 13.1484375 2.26171875 C15.11344634 4.43124892 15.57737447 5.56127195 16.0625 8.375 C16.7225 8.705 17.3825 9.035 18.0625 9.375 C15.8328874 13.95809258 13.78478359 15.52249419 9.0625 17.375 C6.04998166 17.76527575 3.09583127 17.75006871 0.0625 17.6875 C-0.71867187 17.69072266 -1.49984375 17.69394531 -2.3046875 17.69726562 C-12.71159463 17.60090537 -12.71159463 17.60090537 -15.9375 14.375 C-15.97813832 12.70882885 -15.980221 11.04111905 -15.9375 9.375 C-16.9275 9.045 -17.9175 8.715 -18.9375 8.375 C-18.298125 8.1275 -17.65875 7.88 -17 7.625 C-14.74114886 6.58686805 -14.74114886 6.58686805 -14.4375 4.375 C-13.9375 2.375 -13.9375 2.375 -12.19311523 1.27099609 C-8.23799122 -0.30009441 -4.20672023 0.0060398 0 0 Z M-12.9375 4.375 C-12.82340407 5.83422693 -12.69584456 7.29240598 -12.5625 8.75 C-12.49289063 9.56210938 -12.42328125 10.37421875 -12.3515625 11.2109375 C-12.10857412 13.57834191 -12.10857412 13.57834191 -9.9375 15.375 C-4.1087032 17.373081 2.65847608 16.79675858 8.625 15.75 C11.3087305 14.53167958 11.3087305 14.53167958 12.5 11.5625 C13.05803544 8.40029919 12.96039795 6.42785303 12.0625 3.375 C3.50095032 0.33089345 -4.82400753 0.04780402 -12.9375 4.375 Z " fill="#5B503D" transform="translate(63.9375,3.625)"/>
<path d="M0 0 C0.66 1.98 1.32 3.96 2 6 C6.64830412 7.15973785 11.17686653 7.21891015 15.9375 7.25 C17.11602539 7.2809375 17.11602539 7.2809375 18.31835938 7.3125 C23.26807426 7.34563617 26.75761238 6.84153662 31 4 C31.33 3.01 31.66 2.02 32 1 C32.99 1.33 33.98 1.66 35 2 C35 3.98 35 5.96 35 8 C34.01 7.67 33.02 7.34 32 7 C31.236875 7.61875 30.47375 8.2375 29.6875 8.875 C25.04892001 12.54271441 19.6813738 12.15624933 13.9375 12.1875 C12.75027344 12.20167969 11.56304687 12.21585938 10.33984375 12.23046875 C4.62436763 11.83606747 0.50289224 9.47950764 -4 6 C-4.875 3.75 -4.875 3.75 -5 2 C-2 0 -2 0 0 0 Z " fill="#8F8D64" transform="translate(48,13)"/>
<path d="M0 0 C0.33 0 0.66 0 1 0 C1.144375 1.051875 1.28875 2.10375 1.4375 3.1875 C1.92163439 6.82934366 1.92163439 6.82934366 2.625 9.6875 C3.02258587 12.13927953 2.7786753 13.6639741 2 16 C4.51083114 14.74458443 4.87125446 13.49936512 6 11 C6.020625 11.763125 6.04125 12.52625 6.0625 13.3125 C6.79660949 16.41389118 6.79660949 16.41389118 10.5625 17.8125 C11.696875 18.204375 12.83125 18.59625 14 19 C14 19.66 14 20.32 14 21 C14.845625 21.103125 15.69125 21.20625 16.5625 21.3125 C20.41442701 22.0828854 23.44075031 23.36274514 27 25 C26.34 25.66 25.68 26.32 25 27 C21.55834679 26.64700993 19.93127462 25.95418308 17 24 C16.05125 23.690625 15.1025 23.38125 14.125 23.0625 C11.09161148 22.0311479 8.68031301 20.73432018 6 19 C6 20.32 6 21.64 6 23 C0.125 22.125 0.125 22.125 -1 21 C-1.21066368 18.71195833 -1.36864841 16.41896178 -1.5 14.125 C-1.77832315 8.97268808 -1.77832315 8.97268808 -3 4 C-2.34 3.67 -1.68 3.34 -1 3 C-0.67 2.01 -0.34 1.02 0 0 Z " fill="#AEB087" transform="translate(22,53)"/>
<path d="M0 0 C1.65 0 3.3 0 5 0 C4.01 0.495 4.01 0.495 3 1 C5.27415287 4.37088267 5.27415287 4.37088267 9 6 C9 6.99 9 7.98 9 9 C9.804375 9.12375 10.60875 9.2475 11.4375 9.375 C12.283125 9.58125 13.12875 9.7875 14 10 C14.33 10.66 14.66 11.32 15 12 C12.03 11.505 12.03 11.505 9 11 C10.54872019 13.61327737 12.11286126 16.21490446 13.6875 18.8125 C14.34008789 19.91948242 14.34008789 19.91948242 15.00585938 21.04882812 C17.57165184 25.24912542 19.51646735 27.69764539 24 30 C24 30.66 24 31.32 24 32 C20.65750371 31.40312566 18.53563658 30.26396123 16 28 C16 27.34 16 26.68 16 26 C15.34 26 14.68 26 14 26 C12.46277155 23.90405394 11.06192012 21.82474938 9.6875 19.625 C9.28668213 18.99174805 8.88586426 18.35849609 8.47290039 17.70605469 C0 4.14256035 0 4.14256035 0 0 Z " fill="#858B6D" transform="translate(27,87)"/>
<path d="M0 0 C2.91517292 1.07401108 4.77810176 1.77810176 7 4 C14.43446928 6.68324524 24.73943565 5.93512176 32 3 C34.8334743 1.48537267 34.8334743 1.48537267 37 0 C37.75 1.75 37.75 1.75 38 4 C35.88351863 6.5700131 33.77845583 8.14769611 31 10 C28.40002225 10.0086092 25.95338915 9.91286672 23.375 9.6875 C22.68148437 9.63916016 21.98796875 9.59082031 21.2734375 9.54101562 C16.14539517 9.14539517 16.14539517 9.14539517 15 8 C12.81360547 7.92741054 10.62499611 7.91626217 8.4375 7.9375 C7.23996094 7.94652344 6.04242188 7.95554687 4.80859375 7.96484375 C3.41833984 7.98224609 3.41833984 7.98224609 2 8 C1.855625 7.05125 1.71125 6.1025 1.5625 5.125 C1.17064601 2.1065506 1.17064601 2.1065506 0 0 Z " fill="#878454" transform="translate(44,19)"/>
<path d="M0 0 C0.33 0.66 0.66 1.32 1 2 C2.32 2 3.64 2 5 2 C5 2.66 5 3.32 5 4 C7.43800966 3.69112547 9.87535367 3.37805338 12.3125 3.0625 C13.34793945 2.93198242 13.34793945 2.93198242 14.40429688 2.79882812 C17.40142288 2.40789865 20.12450119 1.9584996 23 1 C22.67 2.98 22.34 4.96 22 7 C15.80410381 9.67930646 8.71966073 10.10641467 2.2421875 8.1796875 C0 7 0 7 -1.3125 3.875 C-1.539375 2.92625 -1.76625 1.9775 -2 1 C-1.34 0.67 -0.68 0.34 0 0 Z " fill="#9D7C3F" transform="translate(53,11)"/>
<path d="M0 0 C1.65 0 3.3 0 5 0 C5.25 7.625 5.25 7.625 3 11 C-0.625 11.1875 -0.625 11.1875 -4 11 C-4 9.02 -4 7.04 -4 5 C-2.68 4.67 -1.36 4.34 0 4 C0 2.68 0 1.36 0 0 Z " fill="#F9F9F3" transform="translate(45,56)"/>
<path d="M0 0 C0.90878906 0.2165625 0.90878906 0.2165625 1.8359375 0.4375 C10.41276202 2.33759651 18.35657032 2.50320516 27 1 C27 1.66 27 2.32 27 3 C19.20188115 7.15899672 11.70866521 6.99744291 3.3125 4.5 C1.86975406 4.01534507 0.42997897 3.52112032 -1 3 C-0.67 2.01 -0.34 1.02 0 0 Z " fill="#69736F" transform="translate(51,117)"/>
<path d="M0 0 C0.66 0 1.32 0 2 0 C2.36402369 1.43503555 2.71586591 2.87316506 3.0625 4.3125 C3.25972656 5.11300781 3.45695312 5.91351563 3.66015625 6.73828125 C4 9 4 9 3 12 C2.01 11.67 1.02 11.34 0 11 C-0.38671875 11.433125 -0.7734375 11.86625 -1.171875 12.3125 C-1.69265625 12.869375 -2.2134375 13.42625 -2.75 14 C-3.51570313 14.8353125 -3.51570313 14.8353125 -4.296875 15.6875 C-6 17 -6 17 -10 17 C-8.86500606 13.70851757 -8.00716624 13.0040131 -4.875 11.25 C-3.92625 10.8375 -2.9775 10.425 -2 10 C-2.226875 9.278125 -2.45375 8.55625 -2.6875 7.8125 C-3.08677021 4.2190681 -2.17364926 2.81769349 0 0 Z " fill="#8A8C78" transform="translate(104,57)"/>
<path d="M0 0 C3.1414436 1.83250877 6.22602027 3.63698023 9 6 C9 6.66 9 7.32 9 8 C9.66 8 10.32 8 11 8 C11 8.66 11 9.32 11 10 C11.598125 10.2475 12.19625 10.495 12.8125 10.75 C15.31626919 12.18072525 16.48072388 13.5691582 18 16 C18 16.66 18 17.32 18 18 C15 18 15 18 13.5 16.50390625 C13.005 15.86324219 12.51 15.22257812 12 14.5625 C9.62300315 11.49568071 9.62300315 11.49568071 6 10 C4.62437146 8.71034824 3.29233607 7.37310707 2 6 C1.4225 5.4225 0.845 4.845 0.25 4.25 C-0.1625 3.8375 -0.575 3.425 -1 3 C-0.67 2.01 -0.34 1.02 0 0 Z " fill="#878876" transform="translate(85,35)"/>
<path d="M0 0 C0 0.99 0 1.98 0 3 C-0.99 3.33 -1.98 3.66 -3 4 C-3.33 5.98 -3.66 7.96 -4 10 C-1.69 10 0.62 10 3 10 C3 11.65 3 13.3 3 15 C1.54077307 14.88590407 0.08259402 14.75834456 -1.375 14.625 C-2.18710937 14.55539063 -2.99921875 14.48578125 -3.8359375 14.4140625 C-6 14 -6 14 -8 12 C-8 11.01 -8 10.02 -8 9 C-7.34 9 -6.68 9 -6 9 C-6 6.69 -6 4.38 -6 2 C-2.25 0 -2.25 0 0 0 Z " fill="#D5D4B8" transform="translate(45,57)"/>
<path d="M0 0 C0.33 0.66 0.66 1.32 1 2 C2.65 2 4.3 2 6 2 C5.67 2.99 5.34 3.98 5 5 C7.10544013 4.71767279 9.20933589 4.4238102 11.3125 4.125 C12.48425781 3.96257813 13.65601563 3.80015625 14.86328125 3.6328125 C18.14530895 3.17699379 18.14530895 3.17699379 21 1 C21 1.99 21 2.98 21 4 C14.92122066 7.24201565 9.81598387 7.33278764 3 7 C3 6.34 3 5.68 3 5 C0.69 4.67 -1.62 4.34 -4 4 C-4 3.01 -4 2.02 -4 1 C-2 0 -2 0 0 0 Z " fill="#C7A45F" transform="translate(55,8)"/>
<path d="M0 0 C4.455 0.99 4.455 0.99 9 2 C9.33 3.65 9.66 5.3 10 7 C9.34 6.34 8.68 5.68 8 5 C7.34 5.66 6.68 6.32 6 7 C3.67724823 7.40047444 1.34260643 7.7397104 -1 8 C-1.66 6.68 -2.32 5.36 -3 4 C-2.01 2.68 -1.02 1.36 0 0 Z " fill="#B08839" transform="translate(67,5)"/>
<path d="M0 0 C0.66 0 1.32 0 2 0 C3.92785277 2.8671602 5.70682715 5.78378479 7.45898438 8.75976562 C9.87878305 12.71087513 11.81879365 14.77249007 16 17 C16 17.66 16 18.32 16 19 C12.65750371 18.40312566 10.53563658 17.26396123 8 15 C8 14.34 8 13.68 8 13 C7.34 13 6.68 13 6 13 C4.23828125 10.91796875 4.23828125 10.91796875 2.3125 8.1875 C1.66925781 7.29417969 1.02601562 6.40085937 0.36328125 5.48046875 C-0.08660156 4.66191406 -0.53648438 3.84335938 -1 3 C-0.67 2.01 -0.34 1.02 0 0 Z " fill="#7D8572" transform="translate(35,100)"/>
<path d="M0 0 C0.66 0 1.32 0 2 0 C2 1.32 2 2.64 2 4 C4.31 4.33 6.62 4.66 9 5 C8.60388039 6.96259262 8.18238306 8.92007661 7.75 10.875 C7.40195312 12.51082031 7.40195312 12.51082031 7.046875 14.1796875 C6 17 6 17 2 19 C2.66 15.37 3.32 11.74 4 8 C2.68 8 1.36 8 0 8 C0 5.36 0 2.72 0 0 Z " fill="#CECEA6" transform="translate(46,48)"/>
<path d="M0 0 C0.12375 0.928125 0.2475 1.85625 0.375 2.8125 C1.6421015 6.08764585 1.6421015 6.08764585 4.11328125 7.03125 C9.00365445 8.51543003 13.92465655 9.44833223 19 10 C19 10.33 19 10.66 19 11 C2.36155967 11.30129972 2.36155967 11.30129972 -4 6 C-4.875 3.75 -4.875 3.75 -5 2 C-2 0 -2 0 0 0 Z " fill="#C6C6A5" transform="translate(48,13)"/>
<path d="M0 0 C5.79044016 -0.51470579 9.83274358 0.93674989 15.203125 3.05078125 C17.91642601 3.9716362 20.27961008 4.38486359 23.125 4.625 C25.043125 4.810625 25.043125 4.810625 27 5 C27.33 5.66 27.66 6.32 28 7 C17.5048458 6.84032269 9.61925666 5.39598407 0 1 C0 0.67 0 0.34 0 0 Z " fill="#8D936C" transform="translate(34,89)"/>
<path d="M0 0 C-3 2 -3 2 -6 3 C-5.85892253 4.45880109 -5.71197585 5.91703551 -5.5625 7.375 C-5.44068359 8.59316406 -5.44068359 8.59316406 -5.31640625 9.8359375 C-5.10909886 12.04272805 -5.10909886 12.04272805 -4 14 C-5.66611905 14.042721 -7.33382885 14.04063832 -9 14 C-10 13 -10 13 -10.0625 10.4375 C-10.041875 9.633125 -10.02125 8.82875 -10 8 C-10.99 7.67 -11.98 7.34 -13 7 C-12.360625 6.7525 -11.72125 6.505 -11.0625 6.25 C-8.80364886 5.21186805 -8.80364886 5.21186805 -8.5 3 C-8 1 -8 1 -6.1875 -0.3125 C-3.67700322 -1.10151327 -2.44507934 -0.87324262 0 0 Z " fill="#544D40" transform="translate(58,5)"/>
<path d="M0 0 C2.38672669 2.96283313 4.7353371 5.94270509 7 9 C6.67 9.66 6.34 10.32 6 11 C5.67 11.99 5.34 12.98 5 14 C4.01 13.67 3.02 13.34 2 13 C2 12.34 2 11.68 2 11 C1.34 11 0.68 11 0 11 C0 10.34 0 9.68 0 9 C-0.66 9 -1.32 9 -2 9 C-1.41196203 5.97580475 -0.77321882 2.98241547 0 0 Z " fill="#8C8C65" transform="translate(80,25)"/>
<path d="M0 0 C0.66 1.32 1.32 2.64 2 4 C-3.74350649 9.94155844 -3.74350649 9.94155844 -7.6875 10.125 C-8.8321875 10.063125 -8.8321875 10.063125 -10 10 C-9.8125 7.625 -9.8125 7.625 -9 5 C-6.6875 3.875 -6.6875 3.875 -4 3 C-2.63634717 2.04175747 -1.29205831 1.05278825 0 0 Z " fill="#807F4B" transform="translate(80,19)"/>
<path d="M0 0 C0.66 0 1.32 0 2 0 C2.33 1.32 2.66 2.64 3 4 C-0.64116773 7.33773709 -4.28607242 7.97864902 -9 9 C-9.33 7.35 -9.66 5.7 -10 4 C-5.545 3.505 -5.545 3.505 -1 3 C-0.67 2.01 -0.34 1.02 0 0 Z " fill="#9D9F77" transform="translate(94,63)"/>
<path d="M0 0 C0.66 0.99 1.32 1.98 2 3 C1.43410156 3.48210938 0.86820313 3.96421875 0.28515625 4.4609375 C-0.44832031 5.09257813 -1.18179687 5.72421875 -1.9375 6.375 C-2.66839844 7.00148438 -3.39929688 7.62796875 -4.15234375 8.2734375 C-6.08380906 9.87747714 -6.08380906 9.87747714 -7 12 C-7.66 12 -8.32 12 -9 12 C-9.66 14.64 -10.32 17.28 -11 20 C-11.66 20 -12.32 20 -13 20 C-11.18208205 12.12235554 -8.77213814 6.7404967 -2 2 C-1.34 1.34 -0.68 0.68 0 0 Z " fill="#605F57" transform="translate(29,38)"/>
<path d="M0 0 C0.33 0 0.66 0 1 0 C0.74319906 7.10054603 0.06612857 12.09755529 -4 18 C-4.66 18 -5.32 18 -6 18 C-6.37542662 13.49488055 -6.37542662 13.49488055 -4.625 11.1875 C-2.27215869 8.02021362 -1.88017436 4.83504542 -1 1 C-0.67 0.67 -0.34 0.34 0 0 Z " fill="#777B6B" transform="translate(104,70)"/>
<path d="M0 0 C0.33 0 0.66 0 1 0 C1.144375 1.0725 1.28875 2.145 1.4375 3.25 C1.83749442 5.91662949 2.27591924 8.41399729 3 11 C2.01 11 1.02 11 0 11 C0.33 11.99 0.66 12.98 1 14 C1.12781786 16.67394964 1.04391871 19.32095857 1 22 C0.34 21.67 -0.32 21.34 -1 21 C-1.37890625 17.9453125 -1.37890625 17.9453125 -1.5625 14.125 C-1.79531842 8.97193974 -1.79531842 8.97193974 -3 4 C-2.34 3.67 -1.68 3.34 -1 3 C-0.67 2.01 -0.34 1.02 0 0 Z " fill="#7D7F68" transform="translate(22,53)"/>
<path d="M0 0 C1.65 0.33 3.3 0.66 5 1 C6.04449911 4.13349732 5.93423645 4.98968256 5 8 C4.34 8 3.68 8 3 8 C3.33 9.32 3.66 10.64 4 12 C3.34 12 2.68 12 2 12 C2 11.34 2 10.68 2 10 C1.01 9.67 0.02 9.34 -1 9 C-0.01 8.67 0.98 8.34 2 8 C1.67 7.236875 1.34 6.47375 1 5.6875 C0 3 0 3 0 0 Z " fill="#C3C49F" transform="translate(34,58)"/>
<path d="M0 0 C6.6 0.33 13.2 0.66 20 1 C18 3 18 3 15.390625 3.23046875 C4.89065606 3.08681246 4.89065606 3.08681246 0 2 C0 1.34 0 0.68 0 0 Z " fill="#8C9067" transform="translate(53,86)"/>
<path d="M0 0 C0.99 0.33 1.98 0.66 3 1 C3.1546875 2.175625 3.1546875 2.175625 3.3125 3.375 C3.77595022 6.33045181 3.77595022 6.33045181 7 8 C6.67 9.32 6.34 10.64 6 12 C4.35 11.67 2.7 11.34 1 11 C0.67 7.37 0.34 3.74 0 0 Z " fill="#A0A382" transform="translate(22,64)"/>
<path d="M0 0 C1.65 0 3.3 0 5 0 C5.1953125 6.0546875 5.1953125 6.0546875 5 8 C4.34 8.66 3.68 9.32 3 10 C2.7525 9.38125 2.505 8.7625 2.25 8.125 C0.79371361 5.64931313 -0.37812506 5.04874998 -3 4 C-2.01 4 -1.02 4 0 4 C0 2.68 0 1.36 0 0 Z " fill="#EFEFDD" transform="translate(45,56)"/>
<path d="M0 0 C0.33 0.66 0.66 1.32 1 2 C2.32 2 3.64 2 5 2 C5.33 2.66 5.66 3.32 6 4 C6.99 4.66 7.98 5.32 9 6 C8.030625 5.979375 7.06125 5.95875 6.0625 5.9375 C3.12534105 5.64381501 3.12534105 5.64381501 2 7 C2.99 7.33 3.98 7.66 5 8 C3.35 7.67 1.7 7.34 0 7 C-0.66 5.02 -1.32 3.04 -2 1 C-1.34 0.67 -0.68 0.34 0 0 Z " fill="#9C7B40" transform="translate(53,11)"/>
<path d="M0 0 C3.96 0 7.92 0 12 0 C9 3 9 3 5.78515625 3.36328125 C4.55667969 3.34652344 3.32820313 3.32976563 2.0625 3.3125 C0.22365234 3.30669922 0.22365234 3.30669922 -1.65234375 3.30078125 C-5 3 -5 3 -9 1 C-6.03 1 -3.06 1 0 1 C0 0.67 0 0.34 0 0 Z " fill="#AEAF74" transform="translate(60,22)"/>
<path d="M0 0 C0 0.66 0 1.32 0 2 C-6.07027358 4.1583195 -11.59370576 4.20852314 -18 4 C-12.23174747 0.94923533 -6.54078263 -0.32703913 0 0 Z " fill="#999B71" transform="translate(89,77)"/>
<path d="M0 0 C5.90184049 3.34969325 5.90184049 3.34969325 8 6 C8 6.99 8 7.98 8 9 C4.06326356 7.68775452 1.77280706 6.08089673 -1 3 C-0.67 2.01 -0.34 1.02 0 0 Z " fill="#94947A" transform="translate(85,35)"/>
<path d="M0 0 C3.79303725 1.00193437 6.71536341 1.81024227 10 4 C9.34 5.32 8.68 6.64 8 8 C6.66102417 7.04956626 5.32894573 6.08940853 4 5.125 C3.2575 4.59132813 2.515 4.05765625 1.75 3.5078125 C1.1725 3.01023437 0.595 2.51265625 0 2 C0 1.34 0 0.68 0 0 Z " fill="#808660" transform="translate(31,81)"/>
<path d="M0 0 C0.66 0.33 1.32 0.66 2 1 C-0.31 3.97 -2.62 6.94 -5 10 C-5.99 9.67 -6.98 9.34 -8 9 C-5.89851796 5.01824456 -3.63094642 2.64960955 0 0 Z " fill="#C1C1AB" transform="translate(33,44)"/>
<path d="M0 0 C-0.50522222 4.37859255 -3.17827222 6.81651224 -6 10 C-6.99 9.67 -7.98 9.34 -9 9 C-8.01 8.67 -7.02 8.34 -6 8 C-5.896875 7.236875 -5.79375 6.47375 -5.6875 5.6875 C-4.83195622 2.34310158 -3.70341243 0 0 0 Z " fill="#7F8777" transform="translate(88,107)"/>
<path d="M0 0 C0.33 0.66 0.66 1.32 1 2 C0.67 2.66 0.34 3.32 0 4 C2.31 4 4.62 4 7 4 C7 4.33 7 4.66 7 5 C4.03 5 1.06 5 -2 5 C-2 4.34 -2 3.68 -2 3 C-2.94875 3.04125 -3.8975 3.0825 -4.875 3.125 C-8 3 -8 3 -10 1 C-6.7 0.67 -3.4 0.34 0 0 Z " fill="#9D9D5B" transform="translate(70,36)"/>
<path d="M0 0 C0 2.83967231 -0.40267181 5.23735711 -1 8 C-5 8 -5 8 -8 7 C-7.236875 6.401875 -6.47375 5.80375 -5.6875 5.1875 C-3.6516425 3.53040668 -1.8021721 1.89702326 0 0 Z " fill="#A9AA84" transform="translate(43,33)"/>
<path d="M0 0 C0.9435441 2.53899138 1.16906025 3.60909275 0.07421875 6.140625 C-0.61220703 7.18476562 -0.61220703 7.18476562 -1.3125 8.25 C-1.76238281 8.95640625 -2.21226563 9.6628125 -2.67578125 10.390625 C-3.11277344 10.92171875 -3.54976563 11.4528125 -4 12 C-4.66 12 -5.32 12 -6 12 C-4.68139111 7.38486888 -2.78644563 3.90102388 0 0 Z " fill="#797F6F" transform="translate(97,90)"/>
<path d="M0 0 C4.62 0.66 9.24 1.32 14 2 C14 2.66 14 3.32 14 4 C10.37 4 6.74 4 3 4 C3 3.34 3 2.68 3 2 C2.01 2 1.02 2 0 2 C0 1.34 0 0.68 0 0 Z " fill="#A9884A" transform="translate(55,16)"/>
<path d="M0 0 C-1.33333333 0.66666667 -2.66666667 1.33333333 -4 2 C-4.928125 2.556875 -4.928125 2.556875 -5.875 3.125 C-8.65367042 4.26915841 -11.02626695 4.13516968 -14 4 C-13 2 -13 2 -10.8203125 1.11328125 C-9.93085937 0.84902344 -9.04140625 0.58476563 -8.125 0.3125 C-7.24070312 0.04050781 -6.35640625 -0.23148437 -5.4453125 -0.51171875 C-3 -1 -3 -1 0 0 Z " fill="#838761" transform="translate(96,82)"/>
<path d="M0 0 C0 0.66 0 1.32 0 2 C-3.66539668 4.37706418 -6.49056835 4.05094317 -10.75 3.625 C-11.92046875 3.51414062 -13.0909375 3.40328125 -14.296875 3.2890625 C-15.18890625 3.19367188 -16.0809375 3.09828125 -17 3 C-17 2.67 -17 2.34 -17 2 C-14.54187409 1.66507287 -12.08352273 1.3319903 -9.625 1 C-8.92632812 0.90460938 -8.22765625 0.80921875 -7.5078125 0.7109375 C-2.2265625 0 -2.2265625 0 0 0 Z " fill="#717C73" transform="translate(78,118)"/>
<path d="M0 0 C4 1 4 1 5.75 2.875 C7 5 7 5 7 8 C6.34 8 5.68 8 5 8 C4.34 6.68 3.68 5.36 3 4 C2.67 5.65 2.34 7.3 2 9 C1.67 9 1.34 9 1 9 C0.67 6.03 0.34 3.06 0 0 Z " fill="#7B8063" transform="translate(23,75)"/>
<path d="M0 0 C-0.33 1.98 -0.66 3.96 -1 6 C-2.32 6.33 -3.64 6.66 -5 7 C-5 5.68 -5 4.36 -5 3 C-5.66 2.67 -6.32 2.34 -7 2 C-2.25 0 -2.25 0 0 0 Z " fill="#A48244" transform="translate(76,12)"/>
<path d="M0 0 C3.3 0 6.6 0 10 0 C9.67 0.99 9.34 1.98 9 3 C6.1875 3.1875 6.1875 3.1875 3 3 C2.01 2.01 1.02 1.02 0 0 Z " fill="#B0B171" transform="translate(58,39)"/>
<path d="M0 0 C-2.25 2.5 -2.25 2.5 -5 5 C-6.32 5 -7.64 5 -9 5 C-7.93411431 2.09303901 -7.29651501 1.15567038 -4.5 -0.3125 C-2 -1 -2 -1 0 0 Z " fill="#8F9178" transform="translate(103,69)"/>
<path d="M0 0 C1.98 0 3.96 0 6 0 C6 3.3 6 6.6 6 10 C4.02 10.99 4.02 10.99 2 12 C2.66 8.37 3.32 4.74 4 1 C2.68 0.67 1.36 0.34 0 0 Z " fill="#DADABA" transform="translate(46,55)"/>
<path d="M0 0 C1.45792884 -0.05399736 2.91642712 -0.09279177 4.375 -0.125 C5.18710937 -0.14820312 5.99921875 -0.17140625 6.8359375 -0.1953125 C9 0 9 0 11 2 C6.99799622 3.60080151 3.95443764 2.29279692 0 1 C0 0.67 0 0.34 0 0 Z " fill="#697056" transform="translate(53,103)"/>
<path d="M0 0 C0.33 0 0.66 0 1 0 C1.33 2.64 1.66 5.28 2 8 C-0.97 7.505 -0.97 7.505 -4 7 C-1.125 1.125 -1.125 1.125 0 0 Z " fill="#838474" transform="translate(106,61)"/>
<path d="M0 0 C-0.66 0.66 -1.32 1.32 -2 2 C-5.29714793 1.67028521 -6.6226839 1.3773161 -9 -1 C-5.23375329 -2.25541557 -3.62811066 -1.37061958 0 0 Z " fill="#A5A87D" transform="translate(49,78)"/>
<path d="M0 0 C0.99 0 1.98 0 3 0 C3.33 1.32 3.66 2.64 4 4 C1.03 3.67 -1.94 3.34 -5 3 C-5 2.67 -5 2.34 -5 2 C-3.35 2 -1.7 2 0 2 C0 1.34 0 0.68 0 0 Z " fill="#C9CAA7" transform="translate(44,68)"/>
<path d="M0 0 C2.31 0.33 4.62 0.66 7 1 C7.33 2.65 7.66 4.3 8 6 C7.34 5.34 6.68 4.68 6 4 C5.01 4.495 5.01 4.495 4 5 C3.896875 4.360625 3.79375 3.72125 3.6875 3.0625 C3.460625 2.381875 3.23375 1.70125 3 1 C2.01 0.67 1.02 0.34 0 0 Z " fill="#A88B49" transform="translate(69,6)"/>
<path d="M0 0 C-3 2 -3 2 -5.625 2.5 C-6.800625 2.7475 -6.800625 2.7475 -8 3 C-8.33 3.66 -8.66 4.32 -9 5 C-8.75 3.125 -8.75 3.125 -8 1 C-5.08518252 -1.1107299 -3.34823603 -1.19579858 0 0 Z " fill="#4A4130" transform="translate(58,5)"/>
<path d="M0 0 C-0.33 0.99 -0.66 1.98 -1 3 C-4.3 3.66 -7.6 4.32 -11 5 C-7.72224847 1.72224847 -4.73330318 0 0 0 Z " fill="#969A66" transform="translate(91,70)"/>
<path d="M0 0 C0 0.99 0 1.98 0 3 C-0.99 3.33 -1.98 3.66 -3 4 C-3.33 5.65 -3.66 7.3 -4 9 C-4.33 9 -4.66 9 -5 9 C-5.33 6.69 -5.66 4.38 -6 2 C-2.25 0 -2.25 0 0 0 Z " fill="#E1E1C8" transform="translate(45,57)"/>
<path d="M0 0 C2.31 0 4.62 0 7 0 C5.68 1.32 4.36 2.64 3 4 C2.01 3.67 1.02 3.34 0 3 C0 2.01 0 1.02 0 0 Z " fill="#C5C59B" transform="translate(39,55)"/>
<path d="M0 0 C-0.99 1.485 -0.99 1.485 -2 3 C-5.625 3.1875 -5.625 3.1875 -9 3 C-6.38997624 -0.48003168 -4.1689578 -0.27793052 0 0 Z " fill="#ABAD70" transform="translate(53,37)"/>
<path d="M0 0 C1.5625 1.125 1.5625 1.125 3 3 C2.6875 6.1875 2.6875 6.1875 2 9 C0 7 0 7 -0.125 3.375 C-0.08375 2.26125 -0.0425 1.1475 0 0 Z " fill="#8E9278" transform="translate(25,78)"/>
<path d="M0 0 C0.33 0 0.66 0 1 0 C1.36923077 5.53846154 1.36923077 5.53846154 -0.5 7.875 C-1.2425 8.431875 -1.2425 8.431875 -2 9 C-2.25 3.375 -2.25 3.375 0 0 Z " fill="#878A76" transform="translate(104,70)"/>
<path d="M0 0 C1.65 0 3.3 0 5 0 C5 1.32 5 2.64 5 4 C3.68 4.33 2.36 4.66 1 5 C0.67 3.35 0.34 1.7 0 0 Z " fill="#A9AC7A" transform="translate(80,68)"/>
<path d="M0 0 C0.66 0.33 1.32 0.66 2 1 C-0.475 4.465 -0.475 4.465 -3 8 C-3.33 6.68 -3.66 5.36 -4 4 C-2.0625 1.75 -2.0625 1.75 0 0 Z " fill="#C7C697" transform="translate(48,41)"/>
<path d="M0 0 C0.66 1.32 1.32 2.64 2 4 C0.02 4.33 -1.96 4.66 -4 5 C-2.25 1.125 -2.25 1.125 0 0 Z " fill="#72734C" transform="translate(80,19)"/>
<path d="M0 0 C0.99 0 1.98 0 3 0 C1.25 3.875 1.25 3.875 -1 5 C-0.67 3.35 -0.34 1.7 0 0 Z " fill="#615F58" transform="translate(35,33)"/>
<path d="M0 0 C1.98 0 3.96 0 6 0 C5.67 0.66 5.34 1.32 5 2 C3.35 1.67 1.7 1.34 0 1 C0 0.67 0 0.34 0 0 Z " fill="#2D2C29" transform="translate(61,124)"/>
<path d="M0 0 C0.33 0 0.66 0 1 0 C1 1.65 1 3.3 1 5 C0.67 5 0.34 5 0 5 C0 3.35 0 1.7 0 0 Z " fill="#34332E" transform="translate(44,21)"/>
<path d="" fill="#343430" transform="translate(0,0)"/>
<path d="" fill="#272724" transform="translate(0,0)"/>
<path d="" fill="#282925" transform="translate(0,0)"/>
<path d="" fill="#272725" transform="translate(0,0)"/>
<path d="" fill="#363734" transform="translate(0,0)"/>
<path d="" fill="#373632" transform="translate(0,0)"/>
<path d="" fill="#363733" transform="translate(0,0)"/>
<path d="" fill="#373632" transform="translate(0,0)"/>
<path d="" fill="#615F58" transform="translate(0,0)"/>
<path d="" fill="#605F57" transform="translate(0,0)"/>
<path d="" fill="#383731" transform="translate(0,0)"/>
<path d="" fill="#31302C" transform="translate(0,0)"/>
<path d="" fill="#363531" transform="translate(0,0)"/>
<path d="" fill="#292926" transform="translate(0,0)"/>
</svg>
